<?xml version="1.0" encoding="utf-8"?>
<!-- Generator: Adobe Illustrator 16.0.0, SVG Export Plug-In . SVG Version: 6.00 Build 0)  -->
<!DOCTYPE svg PUBLIC "-//W3C//DTD SVG 1.1//EN" "http://www.w3.org/Graphics/SVG/1.1/DTD/svg11.dtd">
<svg version="1.1" id="Layer_1" xmlns="http://www.w3.org/2000/svg" xmlns:xlink="http://www.w3.org/1999/xlink" x="0px" y="0px"
	 width="176px" height="77px" viewBox="0 0 176 77" enable-background="new 0 0 176 77" xml:space="preserve">
<g>
	<defs>
		<rect id="SVGID_1_" x="-16.281" y="-21.043" width="212.075" height="119.086"/>
	</defs>
	<clipPath id="SVGID_2_">
		<use xlink:href="#SVGID_1_"  overflow="visible"/>
	</clipPath>
	<path clip-path="url(#SVGID_2_)" fill="#212121" d="M80,17.867l-1.325,5.567c0,0-14.651-2.785-17.879-0.582
		c-3.219,2.197-2.633,5.712-2.777,6.298c-0.15,0.586,0,3.669,4.393,4.4c4.396,0.73,15.686,2.636,15.244,7.911
		c-0.439,5.278-0.293,15.386-12.607,15.973c-12.311,0.589-18.465-2.052-18.465-2.052l1.758-5.124c0,0,9.967,2.047,14.36,1.754
		c4.4-0.296,6.452-2.64,6.746-3.952c0.288-1.32,2.195-6.453-2.64-7.04c-4.842-0.582-16.413-2.784-16.413-9.674
		c0.729-5.714,0.875-13.773,10.401-14.356C70.329,16.403,80,17.867,80,17.867"/>
	<path clip-path="url(#SVGID_2_)" fill="#212121" d="M90.105,16.989h7.912L92.01,60.367c0,0-1.659,4.646-4.976,7.73
		c-4.214,3.354-6.891,5.163-6.891,5.163l-4.403-4.688l5.239-4.012c0,0,3.627-2.624,4.002-7.126
		C85.86,50.259,90.105,16.989,90.105,16.989"/>
	<path clip-path="url(#SVGID_2_)" fill="#212121" d="M28.367,16.553c-14.953,0.291-17.18,6.709-19.157,10.942
		C7.141,31.939,6.378,47.13,6.378,47.13s0.104,9.38,10.749,10.06c10.653,0.689,21.302-2.05,21.302-2.05l-0.204-5.276
		c0,0-8.784,2.15-14.26,2.15c-5.472,0-9.962-1.268-9.962-4.495c0-3.225,0.782-8.104,0.782-8.104h26.868l1.366-11.141
		C43.017,28.273,44.777,16.158,28.367,16.553 M35.782,26.887c-0.244,0.982-0.679,6.922-0.679,6.922H15.831
		c0,0,0.429-3.737,1.099-6.305c0.676-2.571,3.003-4.96,9.98-5.446C33.883,21.565,36.023,25.91,35.782,26.887"/>
	<polygon clip-path="url(#SVGID_2_)" fill="#212121" points="92.186,3.887 99.681,3.741 98.384,13.679 91.031,13.679 	"/>
	<path clip-path="url(#SVGID_2_)" fill="#3993D0" d="M153.27,46.774l-0.087,0.012l-0.102,0.197l-0.625,0.152
		c-1.044,0.229-4.94,1.062-8.649,1.598c-0.249,0.884-0.45,1.764-0.575,2.606c-0.704,4.795-0.024,9.834,0.159,11.029
		c0.982,0.22,7.578,1.662,11.588,1.662c3.942,0,11.73-1.656,13.395-2.021l0.014-0.025c0.386-0.737,3.798-7.337,4.473-12.302
		c0.649-4.78-0.04-9.477-0.163-10.251c-0.699-0.292-5.177-2.036-12.396-2.036c-1.059,0-2.124,0.04-3.194,0.118
		c-1.27,4.101-3.304,8.081-3.688,8.818L153.27,46.774z"/>
	<path clip-path="url(#SVGID_2_)" fill="#0866AE" d="M155.583,22.318c-0.698-0.292-5.182-2.037-12.396-2.037
		c-0.569,0-1.142,0.014-1.715,0.037c-1.027,4.848-3.888,10.448-4.354,11.34l-0.146,0.441l-0.089,0.013l-0.102,0.197l-0.625,0.153
		c-1.176,0.258-5.974,1.283-10.042,1.784c-0.698,4.789-0.021,9.814,0.163,11.01c0.979,0.219,7.577,1.66,11.588,1.66
		c1.098,0,2.496-0.129,3.979-0.324c0.262-0.033,0.527-0.069,0.793-0.108c0.265-0.038,0.531-0.077,0.798-0.116
		c3.38-0.52,6.795-1.247,7.823-1.471l0.133-0.253c0.508-0.989,2.173-4.329,3.32-7.838c0.081-0.248,0.16-0.497,0.235-0.745
		c0.075-0.247,0.147-0.494,0.215-0.741c0.26-0.941,0.466-1.871,0.586-2.752C156.395,27.794,155.706,23.094,155.583,22.318"/>
	<path clip-path="url(#SVGID_2_)" fill="#13365B" d="M139.283,7.644c-0.699-0.292-5.185-2.036-12.396-2.036
		c-4.072,0-8.246,0.573-12.407,1.704c-0.443,0.799-3.911,7.176-4.661,12.24c-0.705,4.796-0.024,9.833,0.159,11.031
		c0.979,0.218,7.577,1.662,11.587,1.662c0.718,0,1.564-0.058,2.479-0.148c0.247-0.025,0.498-0.054,0.754-0.084
		c0.249-0.029,0.501-0.06,0.757-0.094c3.83-0.502,8.216-1.437,9.405-1.695l0.013-0.027c0.346-0.656,3.096-5.977,4.165-10.641
		c0.057-0.246,0.109-0.49,0.156-0.732c0.047-0.245,0.087-0.487,0.123-0.727c0.01-0.067,0.021-0.134,0.03-0.201
		C140.094,13.12,139.406,8.421,139.283,7.644"/>
</g>
</svg>
